<svg width="157" height="24" viewBox="0 0 157 24" fill="none" xmlns="http://www.w3.org/2000/svg">
<path d="M60.4717 15.0123C61.1085 15.0123 61.6355 14.9025 62.0966 14.6609C62.5577 14.4194 62.909 14.09 63.1506 13.6509C63.3921 13.2117 63.5239 12.7067 63.5239 12.1138C63.5239 11.521 63.3921 10.994 63.1506 10.5548C62.909 10.1157 62.5358 9.76433 62.0746 9.52279C61.6135 9.28126 61.0646 9.14951 60.4278 9.14951H58.6492V15.0123H60.4717ZM56.3436 7.10742H60.4937C61.5477 7.10742 62.4918 7.30504 63.3043 7.70028C64.1167 8.09553 64.7535 8.66643 65.2146 9.413C65.6757 10.1596 65.8953 11.0379 65.8953 12.026C65.8953 13.0361 65.6757 13.8924 65.2366 14.639C64.7974 15.3856 64.1607 15.9784 63.3482 16.3737C62.5358 16.7909 61.5916 16.9885 60.5156 16.9885H56.3656L56.3436 7.10742Z" fill="black"/>
<path d="M71.802 15.1448C72.3729 15.1448 72.8779 15.013 73.3171 14.7495C73.7563 14.4861 74.1076 14.1128 74.3711 13.6516C74.6346 13.1905 74.7663 12.6635 74.7663 12.0707C74.7663 11.4778 74.6346 10.9508 74.3711 10.4897C74.1076 10.0286 73.7563 9.65531 73.3171 9.39181C72.8779 9.12832 72.3729 8.99657 71.802 8.99657C71.2311 8.99657 70.748 9.12832 70.2869 9.39181C69.8477 9.65531 69.4745 10.0286 69.2329 10.4897C68.9694 10.9508 68.8377 11.4778 68.8377 12.0707C68.8377 12.6635 68.9694 13.1905 69.2329 13.6516C69.4964 14.1128 69.8477 14.4861 70.2869 14.7495C70.748 15.013 71.2531 15.1448 71.802 15.1448ZM71.802 17.2967C70.8139 17.2967 69.8917 17.0551 69.1012 16.594C68.2887 16.1329 67.652 15.4961 67.2128 14.6837C66.7517 13.8932 66.5321 12.9929 66.5321 12.0487C66.5321 11.1045 66.7517 10.2262 67.2128 9.41377C67.6739 8.62329 68.2887 7.98651 69.1012 7.50343C69.9136 7.04232 70.8139 6.80078 71.824 6.80078C72.834 6.80078 73.7343 7.04232 74.5467 7.50343C75.3592 7.96455 75.996 8.60133 76.4571 9.41377C76.9182 10.2043 77.1378 11.1045 77.1378 12.0487C77.1378 13.0149 76.9182 13.8932 76.4571 14.6837C75.996 15.4742 75.3592 16.1109 74.5467 16.594C73.7123 17.0771 72.8121 17.2967 71.802 17.2967Z" fill="black"/>
<path d="M82.9785 15.1448C83.5494 15.1448 84.0544 15.013 84.4936 14.7495C84.9328 14.4861 85.2841 14.1128 85.5476 13.6516C85.8111 13.1905 85.9428 12.6635 85.9428 12.0707C85.9428 11.4778 85.8111 10.9508 85.5476 10.4897C85.2841 10.0286 84.9328 9.65531 84.4936 9.39181C84.0544 9.12832 83.5494 8.99657 82.9785 8.99657C82.4076 8.99657 81.9245 9.12832 81.4634 9.39181C81.0243 9.65531 80.651 10.0286 80.4094 10.4897C80.1459 10.9508 80.0142 11.4778 80.0142 12.0707C80.0142 12.6635 80.1459 13.1905 80.4094 13.6516C80.6729 14.1128 81.0243 14.4861 81.4634 14.7495C81.9245 15.013 82.4296 15.1448 82.9785 15.1448ZM82.9565 17.2967C81.9684 17.2967 81.0462 17.0551 80.2557 16.594C79.4433 16.1329 78.8065 15.4961 78.3673 14.6837C77.9062 13.8932 77.6866 12.9929 77.6866 12.0487C77.6866 11.1045 77.9062 10.2262 78.3673 9.41377C78.8285 8.62329 79.4433 7.98651 80.2557 7.50343C81.0682 7.04232 81.9684 6.80078 82.9785 6.80078C83.9886 6.80078 84.8888 7.04232 85.7013 7.50343C86.5137 7.96455 87.1505 8.60133 87.6116 9.41377C88.0727 10.2043 88.2923 11.1045 88.2923 12.0487C88.2923 13.0149 88.0727 13.8932 87.6116 14.6837C87.1505 15.4742 86.5137 16.1109 85.7013 16.594C84.8888 17.0771 83.9666 17.2967 82.9565 17.2967Z" fill="black"/>
<path d="M93.4524 15.0123C94.0892 15.0123 94.6162 14.9025 95.0773 14.6609C95.5384 14.4194 95.8898 14.09 96.1313 13.6509C96.3728 13.2117 96.5046 12.7067 96.5046 12.1138C96.5046 11.521 96.3728 10.994 96.1313 10.5548C95.8898 10.1157 95.5165 9.76433 95.0554 9.52279C94.5942 9.28126 94.0453 9.14951 93.4085 9.14951H91.6299V15.0123H93.4524ZM89.3463 7.10742H93.4964C94.5503 7.10742 95.4945 7.30504 96.307 7.70028C97.1194 8.09553 97.7562 8.66643 98.2173 9.413C98.6784 10.1596 98.898 11.0379 98.898 12.026C98.898 13.0361 98.6784 13.8924 98.2393 14.639C97.8001 15.3856 97.1633 15.9784 96.3509 16.3737C95.5384 16.7909 94.5942 16.9885 93.5183 16.9885H89.3683L89.3463 7.10742Z" fill="black"/>
<path d="M104.805 15.1448C105.376 15.1448 105.881 15.013 106.32 14.7495C106.759 14.4861 107.11 14.1128 107.374 13.6516C107.637 13.1905 107.769 12.6635 107.769 12.0707C107.769 11.4778 107.637 10.9508 107.374 10.4897C107.11 10.0286 106.759 9.65531 106.32 9.39181C105.881 9.12832 105.376 8.99657 104.805 8.99657C104.234 8.99657 103.751 9.12832 103.29 9.39181C102.85 9.65531 102.477 10.0286 102.236 10.4897C101.972 10.9508 101.84 11.4778 101.84 12.0707C101.84 12.6635 101.972 13.1905 102.236 13.6516C102.499 14.1128 102.85 14.4861 103.29 14.7495C103.751 15.013 104.256 15.1448 104.805 15.1448ZM104.783 17.2967C103.795 17.2967 102.872 17.0551 102.082 16.594C101.269 16.1329 100.633 15.4961 100.194 14.6837C99.7324 13.8932 99.5128 12.9929 99.5128 12.0487C99.5128 11.1045 99.7324 10.2262 100.194 9.41377C100.655 8.62329 101.269 7.98651 102.082 7.50343C102.894 7.04232 103.795 6.80078 104.805 6.80078C105.815 6.80078 106.715 7.04232 107.527 7.50343C108.34 7.96455 108.977 8.60133 109.438 9.41377C109.899 10.2043 110.118 11.1045 110.118 12.0487C110.118 13.0149 109.899 13.8932 109.438 14.6837C108.977 15.4742 108.34 16.1109 107.527 16.594C106.715 17.0771 105.793 17.2967 104.783 17.2967Z" fill="black"/>
<path d="M115.872 17.2967C114.884 17.2967 114.005 17.0551 113.215 16.594C112.424 16.1329 111.809 15.4961 111.348 14.6837C110.887 13.8712 110.668 12.9929 110.668 12.0487C110.668 11.0826 110.887 10.2262 111.348 9.41377C111.809 8.62329 112.424 7.98651 113.215 7.50343C114.005 7.02036 114.884 6.80078 115.872 6.80078C116.728 6.80078 117.497 6.95449 118.177 7.28385C118.858 7.61322 119.451 8.05238 119.912 8.62329C120.373 9.19419 120.702 9.85293 120.9 10.5775H118.485C118.265 10.0286 117.936 9.63335 117.475 9.36986C117.013 9.10636 116.486 8.95265 115.894 8.95265C115.411 8.95265 114.927 9.0844 114.488 9.32594C114.049 9.56748 113.698 9.94076 113.434 10.4019C113.171 10.863 113.039 11.4119 113.039 12.0268C113.039 12.6635 113.171 13.1905 113.434 13.6516C113.698 14.1128 114.049 14.486 114.488 14.7276C114.927 14.9691 115.389 15.1009 115.894 15.1009C116.289 15.1009 116.64 15.035 116.991 14.9033C117.321 14.7715 117.628 14.5739 117.892 14.3323C118.155 14.0688 118.353 13.7395 118.485 13.3442H120.9C120.724 14.1128 120.395 14.7935 119.934 15.3863C119.473 15.9792 118.902 16.4403 118.199 16.7697C117.475 17.121 116.706 17.2967 115.872 17.2967Z" fill="black"/>
<path d="M125.731 17.2967C124.786 17.2967 123.996 17.143 123.337 16.8136C122.678 16.4842 122.195 16.067 121.888 15.54C121.559 15.013 121.405 14.4421 121.405 13.8493H123.667C123.689 14.1567 123.776 14.4202 123.93 14.6617C124.084 14.9032 124.325 15.0789 124.633 15.2326C124.94 15.3644 125.313 15.4302 125.753 15.4302C126.148 15.4302 126.477 15.3863 126.741 15.2765C127.004 15.1667 127.202 15.035 127.334 14.8374C127.465 14.6617 127.531 14.4202 127.531 14.1786C127.531 13.9151 127.443 13.6956 127.29 13.5199C127.136 13.3662 126.894 13.2344 126.609 13.1466C126.302 13.0588 125.906 12.971 125.401 12.9051C124.677 12.8172 124.062 12.6416 123.535 12.422C123.008 12.2024 122.591 11.8731 122.261 11.4559C121.954 11.0387 121.778 10.4897 121.778 9.85293C121.778 9.23811 121.932 8.71112 122.217 8.25C122.503 7.78889 122.942 7.43756 123.513 7.17407C124.084 6.93253 124.764 6.80078 125.577 6.80078C126.389 6.80078 127.092 6.93253 127.707 7.19602C128.322 7.45952 128.805 7.8328 129.134 8.31588C129.463 8.79895 129.639 9.3479 129.639 9.96272L127.312 9.94076C127.29 9.69922 127.224 9.47964 127.092 9.28202C126.96 9.0844 126.763 8.95265 126.499 8.84286C126.236 8.73307 125.928 8.68916 125.577 8.68916C125.248 8.68916 124.984 8.73307 124.764 8.84286C124.545 8.9307 124.369 9.06244 124.281 9.23811C124.172 9.41377 124.128 9.58943 124.128 9.78706C124.128 10.0286 124.194 10.2262 124.303 10.3799C124.413 10.5336 124.611 10.6434 124.896 10.7532C125.182 10.841 125.643 10.9508 126.236 11.0387C126.302 11.0387 126.345 11.0606 126.411 11.0606C126.477 11.0826 126.543 11.0826 126.609 11.1045C127.334 11.2363 127.926 11.39 128.409 11.6096C128.871 11.8072 129.244 12.1146 129.529 12.5098C129.815 12.9051 129.947 13.4101 129.947 14.0469C129.947 14.7495 129.771 15.3424 129.398 15.8255C129.046 16.3086 128.541 16.6818 127.904 16.9234C127.268 17.1869 126.543 17.3186 125.731 17.2967Z" fill="black"/>
<path d="M45.9943 14.0531C46.8945 12.8454 46.8945 11.1766 45.9943 9.96889L39.6265 1.38335C38.9897 0.505031 37.9577 0 36.8817 0H3.76918C1.8808 0 0.34375 1.53705 0.34375 3.42543V20.5746C0.34375 22.4629 1.8808 24 3.76918 24H36.8817C37.9577 24 38.9897 23.495 39.6265 22.6166L45.9943 14.0531Z" fill="#00FF20"/>
<rect x="134.219" y="5.25" width="22.0085" height="13.5494" rx="1.82321" fill="black"/>
<path d="M137.071 16.5165V7.53125H138.971V11.2385H142.828V7.53125H144.723V16.5165H142.828V12.8048H138.971V16.5165H137.071Z" fill="white"/>
<path d="M146.289 16.5165V7.53125H149.834C150.513 7.53125 151.092 7.65263 151.571 7.8954C152.054 8.13524 152.421 8.47598 152.673 8.91764C152.927 9.35637 153.054 9.87261 153.054 10.4664C153.054 11.063 152.926 11.5763 152.668 12.0063C152.411 12.4333 152.038 12.7609 151.549 12.9891C151.064 13.2172 150.476 13.3313 149.786 13.3313H147.412V11.8045H149.479C149.841 11.8045 150.143 11.7548 150.382 11.6553C150.622 11.5559 150.801 11.4067 150.918 11.2078C151.038 11.0089 151.098 10.7618 151.098 10.4664C151.098 10.168 151.038 9.91648 150.918 9.71174C150.801 9.507 150.621 9.35198 150.378 9.24669C150.138 9.13847 149.836 9.08436 149.47 9.08436H148.189V16.5165H146.289ZM151.141 12.4275L153.375 16.5165H151.277L149.093 12.4275H151.141Z" fill="white"/>
</svg>
